<?xml version="1.0" encoding="UTF-8" standalone="no"?>
<svg width="84px" height="84px" viewBox="0 0 84 84" version="1.1" xmlns="http://www.w3.org/2000/svg" xmlns:xlink="http://www.w3.org/1999/xlink">
    <!-- Generator: Sketch 41.2 (35397) - http://www.bohemiancoding.com/sketch -->
    <title>Group 30</title>
    <desc>Created with Sketch.</desc>
    <defs>
        <circle id="path-1" cx="42" cy="42" r="42"></circle>
        <mask id="mask-2" maskContentUnits="userSpaceOnUse" maskUnits="objectBoundingBox" x="0" y="0" width="84" height="84" fill="white">
            <use xlink:href="#path-1"></use>
        </mask>
    </defs>
    <g id="Page-1" stroke="none" stroke-width="1" fill="none" fill-rule="evenodd">
        <g id="Webshop_Desktop_Support" transform="translate(-1072.000000, -422.000000)">
            <g id="Group-22" transform="translate(78.000000, -136.000000)">
                <g id="Group-12" transform="translate(86.000000, 308.000000)">
                    <g id="Group-13">
                        <g id="Group-10" transform="translate(0.000000, 26.000000)">
                            <g id="Group-16" transform="translate(2.000000, 63.000000)">
                                <g id="Group-24" transform="translate(-7.000000, 36.000000)">
                                    <g id="Group-20">
                                        <g id="Group-4" transform="translate(772.000000, 94.000000)">
                                            <g id="Group-30" transform="translate(141.000000, 31.000000)">
                                                <path d="M41.81725,43.65 C39.5713,43.65 28,34.32465 28,34.32465 L28,33.3 C28,32.0304 29.0304,31 30.3023,31 L53.3322,31 C54.60525,31 55.63565,32.0304 55.63565,33.3 L55.61725,34.45 C55.61725,34.45 44.1713,43.65 41.81725,43.65 Z M41.81725,46.8125 C44.2794,46.8125 55.61725,37.9 55.61725,37.9 L55.63565,51.7 C55.63565,52.9696 54.60525,54 53.3322,54 L30.3023,54 C29.03155,54 28,52.9696 28,51.7 L28.0184,37.9 C28.01725,37.9 39.5713,46.8125 41.81725,46.8125 Z" id="Shape" fill="#21BD5C"></path>
                                                <use id="Oval" stroke="#21BD5C" mask="url(#mask-2)" stroke-width="6" xlink:href="#path-1"></use>
                                            </g>
                                        </g>
                                    </g>
                                </g>
                            </g>
                        </g>
                    </g>
                </g>
            </g>
        </g>
    </g>
</svg>