<?xml version="1.0" encoding="UTF-8" standalone="no"?>
<svg width="84px" height="84px" viewBox="0 0 84 84" version="1.1" xmlns="http://www.w3.org/2000/svg" xmlns:xlink="http://www.w3.org/1999/xlink">
    <!-- Generator: Sketch 41.2 (35397) - http://www.bohemiancoding.com/sketch -->
    <title>Group 29</title>
    <desc>Created with Sketch.</desc>
    <defs>
        <circle id="path-1" cx="42" cy="42" r="42"></circle>
        <mask id="mask-2" maskContentUnits="userSpaceOnUse" maskUnits="objectBoundingBox" x="0" y="0" width="84" height="84" fill="white">
            <use xlink:href="#path-1"></use>
        </mask>
    </defs>
    <g id="Page-1" stroke="none" stroke-width="1" fill="none" fill-rule="evenodd">
        <g id="Webshop_Desktop_Support" transform="translate(-339.000000, -422.000000)">
            <g id="Group-22" transform="translate(78.000000, -136.000000)">
                <g id="Group-12" transform="translate(86.000000, 308.000000)">
                    <g id="Group-13">
                        <g id="Group-10" transform="translate(0.000000, 26.000000)">
                            <g id="Group-16" transform="translate(2.000000, 63.000000)">
                                <g id="Group-24" transform="translate(-7.000000, 36.000000)">
                                    <g id="Group-20">
                                        <g id="Group-4" transform="translate(39.000000, 94.000000)">
                                            <g id="Group-29" transform="translate(141.000000, 31.000000)">
                                                <use id="Oval" stroke="#21BD5C" mask="url(#mask-2)" stroke-width="6" xlink:href="#path-1"></use>
                                                <path d="M41.530813,46.1921501 C38.6039947,43.785501 36.6497351,40.8158081 35.6223223,39.1260466 L34.8559397,37.6812374 C35.1239056,37.3937258 37.1673822,35.2055476 38.0529307,34.018301 C39.1657774,32.5274648 37.5523073,31.1810148 37.5523073,31.1810148 C37.5523073,31.1810148 33.0123342,26.6404112 31.9776706,25.7397305 C30.9430069,24.8377888 29.7519772,25.3387274 29.7519772,25.3387274 C27.577355,26.7438146 25.3229735,27.9654239 25.1877295,33.8404977 C25.1826855,39.3410498 29.3582249,45.0143611 33.8736082,49.4064801 C38.3962423,54.3666868 44.6058007,59.3382427 50.609183,59.3325681 C56.4836263,59.1985851 57.7049204,56.9445189 59.1100075,54.7698967 C59.1100075,54.7698967 59.6112614,53.5798128 58.7102655,52.5442033 C57.808639,51.5089091 53.2674048,46.9679903 53.2674048,46.9679903 C53.2674048,46.9679903 51.9219007,45.354205 50.4307492,46.4679974 C49.3194788,47.2986917 47.3239209,49.1463955 46.8431585,49.5943715 C46.8441042,49.5959478 43.5058795,47.8163388 41.530813,46.1921501 Z" id="Shape" fill="#21BD5C"></path>
                                            </g>
                                        </g>
                                    </g>
                                </g>
                            </g>
                        </g>
                    </g>
                </g>
            </g>
        </g>
    </g>
</svg>